<?xml version="1.0" standalone="no"?><!DOCTYPE svg PUBLIC "-//W3C//DTD SVG 1.1//EN" "http://www.w3.org/Graphics/SVG/1.1/DTD/svg11.dtd"><svg t="1545632535555" class="icon" style="" viewBox="0 0 1024 1024" version="1.1" xmlns="http://www.w3.org/2000/svg" p-id="5617" xmlns:xlink="http://www.w3.org/1999/xlink" width="200" height="200"><defs><style type="text/css"></style></defs><path d="M770.981537 156.136508c57.109447 0 103.573405 46.463958 103.573405 103.573405v517.442806c0 57.109447-46.463958 103.573405-103.573405 103.573405h-517.442806c-57.109447 0-103.573405-46.463958-103.573405-103.573405V259.709913c0-57.109447 46.463958-103.573405 103.573405-103.573405h517.442806m0-53.627652h-517.442806c-86.820767 0-157.201057 70.38029-157.201057 157.201057v517.442806c0 86.820767 70.38029 157.201057 157.201057 157.201057h517.442806c86.820767 0 157.201057-70.38029 157.201057-157.201057V259.709913c0-86.820767-70.38029-157.201057-157.201057-157.201057z" p-id="5618"></path><path d="M646.925571 347.571216a28.222552 28.222552 0 0 1 28.190536 28.190536v269.32287a28.222552 28.222552 0 0 1-28.190536 28.190536h-269.32287a28.222552 28.222552 0 0 1-28.190535-28.190536v-269.32287a28.222552 28.222552 0 0 1 28.190535-28.190536h269.32287m0-53.627651h-269.32287c-45.191302 0-81.818188 36.63489-81.818187 81.818187v269.32287c0 45.191302 36.63489 81.818188 81.818187 81.818187h269.32287c45.191302 0 81.818188-36.63489 81.818188-81.818187v-269.32287c0-45.191302-36.63489-81.818188-81.818188-81.818187zM556.590992 828.291088h-88.661716a24.012381 24.012381 0 1 1 0-48.024763h88.661716a24.012381 24.012381 0 1 1 0 48.024763z" p-id="5619"></path></svg>