<?xml version="1.0" standalone="no"?><!DOCTYPE svg PUBLIC "-//W3C//DTD SVG 1.1//EN" "http://www.w3.org/Graphics/SVG/1.1/DTD/svg11.dtd"><svg t="1545988717386" class="icon" style="" viewBox="0 0 1024 1024" version="1.1" xmlns="http://www.w3.org/2000/svg" p-id="5613" xmlns:xlink="http://www.w3.org/1999/xlink" width="200" height="200"><defs><style type="text/css"></style></defs><path d="M920.408 0H115.408C57.84 0 0 66.96 0 124.488v613C0 795.016 57.84 832 115.408 832h225.84l152.752 175.448c6.064 6.752 14.752 13.104 23.84 13.104s17.752-7.552 23.84-14.336L694.472 832h225.936C977.936 832 1024 795.016 1024 737.488V124.488C1024 66.96 977.936 0 920.408 0zM960 737.488c0 22.216-17.376 30.512-39.592 30.512H680.184c-9.096 0-17.752 8.776-23.84 15.552L517.84 940.576l-138.44-158.24c-6.056-6.784-14.744-14.336-23.84-14.336h-240.16C93.16 768 64 759.704 64 737.488V124.488C64 102.256 93.16 64 115.408 64h805c22.216 0 39.592 38.256 39.592 60.488v613z" fill="#ffffff" p-id="5614"></path><path d="M819.784 256h-596c-17.688 0-32 14.328-32 32s14.312 32 32 32h596c17.688 0 32-14.328 32-32s-14.312-32-32-32zM527.84 480H223.784c-17.688 0-32 14.328-32 32s14.312 32 32 32H527.84c17.688 0 32-14.328 32-32s-14.312-32-32-32z" fill="#ffffff" p-id="5615"></path></svg>