<?xml version="1.0" standalone="no"?><!DOCTYPE svg PUBLIC "-//W3C//DTD SVG 1.1//EN" "http://www.w3.org/Graphics/SVG/1.1/DTD/svg11.dtd"><svg t="1545632482244" class="icon" style="" viewBox="0 0 1024 1024" version="1.1" xmlns="http://www.w3.org/2000/svg" p-id="5508" xmlns:xlink="http://www.w3.org/1999/xlink" width="200" height="200"><defs><style type="text/css"></style></defs><path d="M951.522629 502.475089c0-243.957791-197.733957-441.747776-441.691747-441.811809h-0.112058c-234.10471 0-425.083184 182.141917-440.283021 412.356621h-1.528788v58.910376h1.528788c15.199837 230.214704 206.178311 412.356621 440.33905 412.356621h0.056029c243.957791-0.064033 441.691747-197.846014 441.691747-441.811809z m-178.788188 277.583129a510.751356 510.751356 0 0 0-110.809136-48.897213c14.135289-61.43968 22.211453-130.363219 23.972361-199.230728h205.233824a381.476699 381.476699 0 0 1-118.397049 248.127941z m-262.967592 105.326308c-24.860819 0-55.548642-40.348805-79.408946-111.393437a487.907577 487.907577 0 0 1 158.401676 1.056545c-23.732237 70.396298-54.187941 110.336892-78.99273 110.336892z m-99.843482-13.671049a380.556224 380.556224 0 0 1-116.404021-53.54761c25.44512-12.902653 51.72267-24.156456 79.176825-32.048525 10.421374 32.576797 22.851783 61.567746 37.227196 85.596135z m99.843482-752.139822c24.620695 0 54.844279 39.29226 78.528491 108.8001a488.283771 488.283771 0 0 1-157.40116 1.120578c23.740241-70.156174 54.195945-109.920678 78.872669-109.920678z m-136.606438 97.786421a453.713946 453.713946 0 0 1-78.464458-31.456219 380.260072 380.260072 0 0 1 115.227414-52.667157 411.011928 411.011928 0 0 0-36.762956 84.123376z m236.457923-84.123376a381.460691 381.460691 0 0 1 112.161834 50.658121 449.191614 449.191614 0 0 1-76.047212 31.576281 409.85133 409.85133 0 0 0-36.114622-82.234402z m-103.445339 163.060078c33.521284 0 66.21014-4.066097 98.498789-10.077196 12.134257 52.13088 20.49857 115.051323 22.32351 186.800319h-234.51292c1.824941-71.100661 10.077196-133.484828 22.091391-185.32756 30.039489 5.130645 60.495193 8.604437 91.59923 8.604437z m120.822299 235.633499a938.171745 938.171745 0 0 1-22.267481 186.448137 555.69453 555.69453 0 0 0-190.154048-1.120578 934.033611 934.033611 0 0 1-22.091391-185.327559h234.51292z m19.265934 256.02001c26.741789 8.06816 52.250942 19.321963 77.055732 32.160583a380.083981 380.083981 0 0 1-113.634593 51.546578c14.071255-23.56415 26.269545-51.89876 36.578861-83.707161z m246.351025-285.058984v-0.824425 0.824425z m-1.472759-29.863398h-205.233824a1025.672863 1025.672863 0 0 0-24.092423-199.702972 519.683962 519.683962 0 0 0 109.864649-49.361452 381.476699 381.476699 0 0 1 119.461598 249.064424z m-646.101146-246.53512a517.586881 517.586881 0 0 0 112.217862 48.60106 1028.114121 1028.114121 0 0 0-23.740241 197.93406h-205.177795a381.14853 381.14853 0 0 1 116.700174-246.53512z m-116.700174 305.437492h205.233824c1.768912 68.099114 9.71701 136.254256 23.56415 197.165663a509.38265 509.38265 0 0 0-112.986258 48.537027 381.244579 381.244579 0 0 1-115.811716-245.70269z" p-id="5509"></path></svg>