<?xml version="1.0" encoding="UTF-8"?>
<svg width="70px" height="59px" viewBox="0 0 70 59" version="1.1" xmlns="http://www.w3.org/2000/svg" xmlns:xlink="http://www.w3.org/1999/xlink">
    <!-- Generator: Sketch 52.5 (67469) - http://www.bohemiancoding.com/sketch -->
    <title>Group 11@2x</title>
    <desc>Created with Sketch.</desc>
    <g id="案例出方案" stroke="none" stroke-width="1" fill="none" fill-rule="evenodd">
        <g id="分享方案" transform="translate(-340.000000, -1109.000000)">
            <g id="Group-7" transform="translate(0.000000, 1016.000000)">
                <g id="Group-11" transform="translate(340.000000, 87.000000)">
                    <rect id="Rectangle-26-Copy" x="0" y="0" width="70" height="70"></rect>
                    <g id="微信-3" transform="translate(0.000000, 6.363636)" fill="#5ECD3E" fill-rule="nonzero">
                        <path d="M48.540679,17.3331525 C48.8830775,17.3331525 49.223377,17.3407716 49.5620438,17.353444 C47.4052591,7.47785106 37.2260531,0 24.9924554,0 C11.1894529,0 0,9.51897539 0,21.2610768 C0,28.121475 3.82057454,34.2217576 9.74926403,38.1093321 L7.25225762,45.4744526 L15.520671,40.9405039 C18.4420215,41.9591224 21.6396856,42.5221536 24.9923776,42.5221536 C25.6386899,42.5221536 26.279249,42.5013179 26.9131218,42.4602684 C26.2137081,40.6079873 25.8347684,38.6341127 25.8347684,36.5850583 C25.8349239,25.9526152 36.0006018,17.3331525 48.540679,17.3331525 Z M33.6174173,10.5102276 C35.6557153,10.5102276 37.3081541,12.1625478 37.3081541,14.2008734 C37.3081541,16.2391211 35.6557931,17.8915191 33.6174173,17.8915191 C31.5790415,17.8915191 29.9266805,16.2391989 29.9266805,14.2008734 C29.9267583,12.1625478 31.5791193,10.5102276 33.6174173,10.5102276 Z M16.4476507,17.8914413 C14.4093527,17.8914413 12.7569139,16.2391211 12.7569139,14.2007956 C12.7569139,12.1625478 14.4092749,10.5101498 16.4476507,10.5101498 C18.4860265,10.5101498 20.1383875,12.16247 20.1383875,14.2007956 C20.1383875,16.2390433 18.4860265,17.8914413 16.4476507,17.8914413 Z" id="Shape"></path>
                        <path d="M70,36.8413243 C70,26.9354059 60.5064975,18.9051095 48.7955813,18.9051095 C37.0846652,18.9051095 27.5912409,26.9354059 27.5912409,36.8413243 C27.5912409,46.7472428 37.0847433,54.7775392 48.7956595,54.7775392 C51.2545652,54.7775392 53.6150302,54.4222894 55.8111151,53.7712581 L63.0611093,57.7372263 L60.9540116,51.5368791 C66.423481,48.2930234 70,42.9207869 70,36.8413243 Z M42.170685,34.2675173 C40.5307114,34.2675173 39.2012944,32.9412932 39.2012944,31.3052582 C39.2012944,29.6692233 40.5307113,28.3429991 42.170685,28.3429991 C43.8106585,28.3429991 45.1400755,29.6692233 45.1400755,31.3052582 C45.1400754,32.9412932 43.8106585,34.2675173 42.170685,34.2675173 Z M55.9849487,34.2675173 C54.3449751,34.2675173 53.0155582,32.9412932 53.0155582,31.3052582 C53.0155582,29.6692233 54.3449751,28.3429991 55.9849487,28.3429991 C57.6249223,28.3429991 58.9543392,29.6692233 58.9543392,31.3052582 C58.9543392,32.9412932 57.6248441,34.2675173 55.9849487,34.2675173 Z" id="Shape"></path>
                    </g>
                </g>
            </g>
        </g>
    </g>
</svg>